<?xml version="1.0" encoding="UTF-8"?><svg id="Layer_1" xmlns="http://www.w3.org/2000/svg" viewBox="0 0 199.48 256"><defs><style>.cls-1{fill:#ef3e3e;}</style></defs><g id="trash"><path id="bin" class="cls-1" d="M16.62,86.65l16.62,169.35h132.99l16.62-169.35H16.62ZM151.18,199.96l-17.63,17.63-33.81-33.81-33.81,33.81-17.63-17.63,33.81-33.81-33.81-33.81,17.63-17.63,33.81,33.81,33.81-33.81,17.63,17.63-33.81,33.81,33.81,33.81Z"/><path id="lid" class="cls-1" d="M174.54,39.88h-23.05c0-21.99-17.89-39.88-39.88-39.88h-26.68c-21.99,0-39.88,17.89-39.88,39.88h-20.11c-13.78,0-24.94,11.17-24.94,24.94h0s199.48,0,199.48,0h0c0-13.78-11.17-24.94-24.94-24.94ZM84.93,20.78h26.68c10.53,0,19.1,8.57,19.1,19.1h-64.88c0-10.53,8.57-19.1,19.1-19.1Z"/></g></svg>